<mxfile host="app.diagrams.net" modified="2024-02-16T13:38:34.008Z" agent="Mozilla/5.0 (Windows NT 10.0; Win64; x64) AppleWebKit/537.36 (KHTML, like Gecko) Chrome/121.0.0.0 Safari/537.36" etag="OeMPwbTEBCmD1nIWgFWT" version="23.1.5" type="github">
  <diagram name="Sayfa -1" id="HPL01jEVKruBn7TS0eRn">
    <mxGraphModel dx="1290" dy="557" grid="1" gridSize="10" guides="1" tooltips="1" connect="1" arrows="1" fold="1" page="1" pageScale="1" pageWidth="827" pageHeight="1169" math="0" shadow="0">
      <root>
        <mxCell id="0" />
        <mxCell id="1" parent="0" />
        <mxCell id="sOiN5bxi4WL29BtSN-za-1" value="START" style="ellipse;whiteSpace=wrap;html=1;" vertex="1" parent="1">
          <mxGeometry x="310" y="40" width="120" height="80" as="geometry" />
        </mxCell>
        <mxCell id="sOiN5bxi4WL29BtSN-za-6" value="" style="edgeStyle=orthogonalEdgeStyle;rounded=0;orthogonalLoop=1;jettySize=auto;html=1;" edge="1" parent="1" source="sOiN5bxi4WL29BtSN-za-2" target="sOiN5bxi4WL29BtSN-za-3">
          <mxGeometry relative="1" as="geometry">
            <Array as="points">
              <mxPoint x="360" y="290" />
              <mxPoint x="360" y="290" />
            </Array>
          </mxGeometry>
        </mxCell>
        <mxCell id="sOiN5bxi4WL29BtSN-za-2" value="NUMBER1" style="shape=parallelogram;perimeter=parallelogramPerimeter;whiteSpace=wrap;html=1;fixedSize=1;" vertex="1" parent="1">
          <mxGeometry x="300" y="180" width="120" height="60" as="geometry" />
        </mxCell>
        <mxCell id="sOiN5bxi4WL29BtSN-za-7" value="" style="edgeStyle=orthogonalEdgeStyle;rounded=0;orthogonalLoop=1;jettySize=auto;html=1;" edge="1" parent="1" source="sOiN5bxi4WL29BtSN-za-3" target="sOiN5bxi4WL29BtSN-za-4">
          <mxGeometry relative="1" as="geometry" />
        </mxCell>
        <mxCell id="sOiN5bxi4WL29BtSN-za-3" value="NUMBER2" style="shape=parallelogram;perimeter=parallelogramPerimeter;whiteSpace=wrap;html=1;fixedSize=1;" vertex="1" parent="1">
          <mxGeometry x="294" y="300" width="120" height="60" as="geometry" />
        </mxCell>
        <mxCell id="sOiN5bxi4WL29BtSN-za-9" value="" style="edgeStyle=orthogonalEdgeStyle;rounded=0;orthogonalLoop=1;jettySize=auto;html=1;" edge="1" parent="1" source="sOiN5bxi4WL29BtSN-za-4" target="sOiN5bxi4WL29BtSN-za-8">
          <mxGeometry relative="1" as="geometry" />
        </mxCell>
        <mxCell id="sOiN5bxi4WL29BtSN-za-4" value="NUMBER1+NUMBER2&lt;div&gt;&lt;br/&gt;&lt;/div&gt;" style="shape=document;whiteSpace=wrap;html=1;boundedLbl=1;" vertex="1" parent="1">
          <mxGeometry x="294" y="410" width="120" height="80" as="geometry" />
        </mxCell>
        <mxCell id="sOiN5bxi4WL29BtSN-za-5" style="edgeStyle=orthogonalEdgeStyle;rounded=0;orthogonalLoop=1;jettySize=auto;html=1;exitX=0.5;exitY=1;exitDx=0;exitDy=0;entryX=0.597;entryY=-0.05;entryDx=0;entryDy=0;entryPerimeter=0;" edge="1" parent="1" source="sOiN5bxi4WL29BtSN-za-1" target="sOiN5bxi4WL29BtSN-za-2">
          <mxGeometry relative="1" as="geometry">
            <Array as="points">
              <mxPoint x="370" y="177" />
            </Array>
          </mxGeometry>
        </mxCell>
        <mxCell id="sOiN5bxi4WL29BtSN-za-8" value="RESULT" style="ellipse;whiteSpace=wrap;html=1;" vertex="1" parent="1">
          <mxGeometry x="294" y="545" width="120" height="80" as="geometry" />
        </mxCell>
      </root>
    </mxGraphModel>
  </diagram>
</mxfile>
